<svg xmlns="http://www.w3.org/2000/svg" width="1280" height="340" viewBox="0 0 1280 340" role="img" aria-label="langstage-jupyter — chat with your LangGraph agent inside JupyterLab">
  <defs>
    <linearGradient id="bg" x1="0" y1="0" x2="1" y2="1">
      <stop offset="0" stop-color="#0B1221"/>
      <stop offset="1" stop-color="#1A1226"/>
    </linearGradient>
    <linearGradient id="accent" x1="0" y1="0" x2="1" y2="0">
      <stop offset="0" stop-color="#F37726"/>
      <stop offset="1" stop-color="#7C5CFF"/>
    </linearGradient>
    <radialGradient id="glow" cx="0.82" cy="0.15" r="0.6">
      <stop offset="0" stop-color="#F37726" stop-opacity="0.18"/>
      <stop offset="1" stop-color="#F37726" stop-opacity="0"/>
    </radialGradient>
  </defs>

  <rect width="1280" height="340" rx="20" fill="url(#bg)"/>
  <rect width="1280" height="340" rx="20" fill="url(#glow)"/>
  <rect x="1" y="1" width="1278" height="338" rx="19" fill="none" stroke="#2E2A44" stroke-width="1.5"/>

  <!-- ===== left: identity ===== -->
  <g transform="translate(72,66)">
    <rect width="140" height="34" rx="17" fill="#241A2E" stroke="url(#accent)" stroke-width="1.5"/>
    <circle cx="22" cy="17" r="5" fill="url(#accent)"/>
    <text x="38" y="23" font-family="'SF Mono','JetBrains Mono','Consolas',monospace" font-size="15" fill="#F6C8A6">JupyterLab</text>
  </g>

  <text x="70" y="178" font-family="'SF Mono','JetBrains Mono','Consolas',monospace" font-size="54" font-weight="700" fill="#F2F6FC" letter-spacing="-1">langstage-<tspan fill="url(#accent)">jupyter</tspan></text>

  <text x="72" y="222" font-family="'Segoe UI',Helvetica,Arial,sans-serif" font-size="22" fill="#B7A8C6">Chat with your LangGraph agent inside</text>
  <text x="72" y="252" font-family="'Segoe UI',Helvetica,Arial,sans-serif" font-size="22" fill="#B7A8C6">JupyterLab &#8212; right beside your notebooks.</text>

  <g font-family="'SF Mono','JetBrains Mono','Consolas',monospace" font-size="13" fill="#8A7C9A">
    <text x="72" y="300">sidebar chat</text>
    <text x="188" y="300" fill="#4A3F5A">&#8226;</text>
    <text x="208" y="300">workspace</text>
    <text x="300" y="300" fill="#4A3F5A">&#8226;</text>
    <text x="320" y="300">notebook context</text>
  </g>

  <!-- ===== right: JupyterLab mock (sidebar chat + notebook) ===== -->
  <g transform="translate(788,70)">
    <rect width="424" height="200" rx="12" fill="#0E1220" stroke="#2E2A44" stroke-width="1.5"/>
    <!-- left rail -->
    <rect width="34" height="200" rx="12" fill="#141020"/>
    <rect x="22" width="12" height="200" fill="#141020"/>
    <rect x="9" y="16" width="16" height="16" rx="3" fill="#2A2440"/>
    <rect x="9" y="40" width="16" height="16" rx="3" fill="#F37726" opacity="0.85"/>
    <rect x="9" y="64" width="16" height="16" rx="3" fill="#2A2440"/>
    <!-- notebook area -->
    <g transform="translate(48,16)">
      <rect width="220" height="26" rx="6" fill="#12182A" stroke="#26314C" stroke-width="1"/>
      <text x="10" y="17" font-family="'SF Mono','Consolas',monospace" font-size="10" fill="#6EA8FF">In [1]: df.describe()</text>
      <rect y="34" width="220" height="40" rx="6" fill="#0C1424"/>
      <rect x="10" y="46" width="150" height="6" rx="3" fill="#26314C"/>
      <rect x="10" y="58" width="120" height="6" rx="3" fill="#26314C"/>
    </g>
    <!-- chat sidebar -->
    <line x1="288" y1="0" x2="288" y2="200" stroke="#2E2A44" stroke-width="1"/>
    <g transform="translate(300,16)">
      <text x="0" y="8" font-family="'SF Mono','Consolas',monospace" font-size="10" fill="#8A7C9A" letter-spacing="1">LANGSTAGE</text>
      <rect x="20" y="20" width="90" height="18" rx="8" fill="#1A2338"/>
      <rect y="46" width="10" height="10" rx="5" fill="url(#accent)"/>
      <rect x="16" y="48" width="100" height="7" rx="3.5" fill="#2A2A44"/>
      <rect x="16" y="60" width="80" height="7" rx="3.5" fill="#2A2A44"/>
      <rect x="0" y="150" width="112" height="24" rx="8" fill="#12182A" stroke="#3A3358" stroke-width="1"/>
      <text x="12" y="166" font-family="'Segoe UI',Arial,sans-serif" font-size="10" fill="#6C6486">Ask about this notebook…</text>
    </g>
  </g>
</svg>
